<?xml version="1.0" encoding="UTF-8" standalone="no"?>
<!DOCTYPE svg PUBLIC "-//W3C//DTD SVG 1.1//EN" "http://www.w3.org/Graphics/SVG/1.1/DTD/svg11.dtd">
<svg width="100%" height="100%" viewBox="0 0 423 126" version="1.1" xmlns="http://www.w3.org/2000/svg" xmlns:xlink="http://www.w3.org/1999/xlink" xml:space="preserve" xmlns:serif="http://www.serif.com/" style="fill-rule:evenodd;clip-rule:evenodd;stroke-linejoin:round;stroke-miterlimit:2;">
    <g transform="matrix(1,0,0,1,-38.727111,-40.030345)">
        <g id="Logo_Banco_BISA.svg.png" transform="matrix(1,0,0,1,36,38)">
            <path d="M317.5,2.039C333.65,2.04 333.575,1.947 343.542,3.191C391.935,9.231 429.517,37.091 424.774,70.541C418.965,111.519 354.5,133.005 305.441,126.925C264.45,121.846 255.58,111.558 249.601,109.334C243.97,107.239 229.858,93.741 226.729,88.329C197.15,37.167 265.607,1.4 317.5,2.039ZM285.396,9.081C279.254,10.749 252.709,16.616 234.431,36.438C195.118,79.073 257.438,136.948 350.458,122.256C415.486,111.986 451.194,57.649 392.23,21.954C385.356,17.793 368.951,10.536 351.527,7.357C319.352,1.487 290.561,7.926 285.396,9.081Z" style="fill:white;fill-opacity:0.97;"/>
            <path d="M272.49,82.93C288.365,81.751 282.742,61.169 270.496,64.481C266.151,65.656 267.271,63.041 267.334,58.498C267.394,54.152 265.822,49.021 271.522,48.826C307.618,47.589 305.332,99.797 271.505,99.224C271.104,99.217 248.397,98.189 248.323,72.5C248.313,69.219 248.207,32.399 248.352,31.478C248.564,30.135 248.86,29.382 261.481,29.72C263.947,29.786 263.41,31.229 263.466,71.5C263.475,78.094 265.575,82.053 272.49,82.93Z" style="fill:white;"/>
            <path d="M397.051,74.511C396.84,96.703 397.455,97.497 395.63,97.979C395.288,98.069 383.244,98.461 382.382,97.637C379.285,94.679 388.482,64.111 371.541,65.818C360.157,66.966 359.22,89.157 376.543,83.66C376.702,83.61 378.358,83.084 378.434,84.519C379.215,99.253 377.822,99.62 376.621,99.937C353.521,106.024 334.795,70.438 358.795,53.963C368.938,47 394.619,46.047 397.051,74.511Z" style="fill:white;"/>
            <path d="M200.398,82.407C182.021,101.379 154.783,79.245 165.866,57.696C166.193,57.059 171.626,47.907 182.46,47.117C204.016,45.546 211.983,69.377 200.398,82.407ZM176.997,67.548C177.216,66.878 177.72,62.71 182.464,61.357C185.764,60.416 188.8,62.343 189.287,62.759C198.575,70.694 179.919,84.832 176.997,67.548Z" style="fill:white;fill-opacity:0.99;"/>
            <path d="M2.95,32.709L3.639,32.696C4.012,32.629 4.16,32.059 4.533,31.993C4.872,31.932 5.156,32.321 5.498,32.364C12.887,33.289 12.836,31.836 13.459,31.972C13.835,32.054 13.928,32.675 14.303,32.757C14.603,33.023 14.903,33.289 15.203,33.554C15.234,52.589 14.612,68.898 15.758,71.387C20.718,82.165 38.671,70.38 26.465,61.558C22.983,59.042 17.685,63.571 17.996,59.476C18.235,56.317 17.813,53.305 18.077,50.455C18.602,44.762 32.074,49.252 34.29,50.794C43.183,56.982 46.702,71.862 39.612,80.58C25.267,98.219 5.097,86.919 2.909,72.457C2.713,71.166 2.608,34.438 2.95,32.709Z" style="fill:white;fill-opacity:0.99;"/>
            <path d="M76.734,74.518C76.724,73.764 78.355,63.291 70.589,62.154C57.875,60.294 59.417,81.468 72.472,76.367C72.742,76.579 73.222,76.305 73.492,76.517C74.768,77.519 74.071,87.357 74.004,88.298C73.975,88.719 73.498,89.025 73.469,89.445C52.14,94.037 42.508,68.722 52.601,56.571C63.255,43.747 85.559,44.573 88.969,66.448C89.526,70.025 89.206,87.175 89.109,87.351C88.355,88.727 80,88.232 77.557,88.226C76.206,85.938 77.13,84.02 76.734,74.518Z" style="fill:white;fill-opacity:0.99;"/>
            <path d="M127.635,58.459C129.593,65.409 128.392,87.382 128.359,87.427C127.769,88.251 115.889,89.739 116.182,86.574C116.296,85.348 116.142,69.026 116.127,67.5C115.996,53.563 108.739,58.49 107.897,60.69C106.021,65.592 108.326,87.234 106.325,88.094C106.12,88.182 95.408,88.392 94.685,88.084C93.316,87.5 93.927,65.54 93.981,63.58C94.394,48.729 107.686,47.411 109.479,47.233C124.671,45.728 127.573,58.303 127.635,58.459Z" style="fill:white;fill-opacity:0.98;"/>
            <path d="M360.412,30.19C362.624,29.751 369.135,27.054 369.151,31.508C369.177,39.195 370.155,43.146 366.585,43.897C355.137,46.306 348.786,63.072 344.103,69.158C338.763,76.097 320.178,80.553 320.104,74.52C320.004,66.4 319.332,62.354 322.54,61.979C343.303,59.549 332.623,40.563 360.412,30.19Z" style="fill:white;"/>
            <path d="M152.587,59.893C140.545,65.471 147.01,77.708 157.538,74.702C160.242,73.93 159.39,75.713 161.865,82.373C163.241,86.074 164.351,87.529 160.479,88.377C134.774,94.01 124.182,63.561 143.647,49.745C148.71,46.151 163.922,45.645 163.15,50.402C162.784,52.661 160.41,58.653 160.131,59.356C159.439,61.105 157.177,59.58 152.587,59.893Z" style="fill:white;fill-opacity:0.99;"/>
            <path d="M301.067,56.5C301.08,56.01 301.238,50.378 301.238,50.378C301.61,49.379 301.823,48.811 314.516,49.378C317.13,49.495 316.375,55.805 316.363,62.5C316.301,96.276 316.981,97.517 314.564,97.917C314.108,97.993 302.695,97.946 302.395,97.873C300.982,97.526 301.072,96.896 301.067,56.5Z" style="fill:white;"/>
            <path d="M307.563,45.125C297.624,42.3 300.764,34.107 303.548,31.552C314.216,21.758 324.6,45.7 307.563,45.125Z" style="fill:white;"/>
            <path d="M76.734,74.518C77.13,84.02 76.206,85.938 77.557,88.226C77.247,88.368 75.374,89.228 73.469,89.445C73.498,89.025 73.975,88.719 74.004,88.298C74.071,87.357 74.768,77.519 73.492,76.517C73.222,76.305 72.742,76.579 72.472,76.367C72.797,76.186 74.511,75.232 76.734,74.518Z" style="fill:white;fill-opacity:0.05;"/>
            <path d="M14.303,32.757C14.693,32.725 14.719,31.938 15.109,31.905C15.109,31.905 15.196,33.423 15.203,33.554C14.903,33.289 14.603,33.023 14.303,32.757Z" style="fill:white;fill-opacity:0.37;"/>
        </g>
    </g>
</svg>
