<?xml version="1.0" encoding="UTF-8" standalone="no"?>
<!DOCTYPE svg PUBLIC "-//W3C//DTD SVG 1.1//EN" "http://www.w3.org/Graphics/SVG/1.1/DTD/svg11.dtd">
<svg width="100%" height="100%" viewBox="0 0 348 132" version="1.1" xmlns="http://www.w3.org/2000/svg" xmlns:xlink="http://www.w3.org/1999/xlink" xml:space="preserve" xmlns:serif="http://www.serif.com/" style="fill-rule:evenodd;clip-rule:evenodd;stroke-linejoin:round;stroke-miterlimit:2;">
    <g transform="matrix(1,0,0,1,-75.851929,-34.100853)">
        <g id="_6895679254e4ed7a1fc61ac7_foster-partners-logo-700x271-1440x.webp" serif:id="6895679254e4ed7a1fc61ac7_foster-partners-logo-700x271-1440x.webp" transform="matrix(1,0,0,1,69,29)">
            <path d="M22.087,129.5C21.945,130.807 22.207,132.138 22.064,133.445C21.767,136.185 7.861,134.904 7.462,134.542C6.854,133.992 6.892,133.816 6.898,80.5C6.898,80.021 6.899,75.146 7.539,74.55C7.843,74.267 39.434,72.912 47.365,75.874C64.952,82.442 63.047,113.715 38.524,114.875C33.739,115.102 24.647,114.995 24.512,114.999C21.346,115.092 22.08,117.673 22.087,129.5ZM22.089,99.5C22.178,102.567 21.444,103.817 24.485,103.861C28.415,103.917 45.15,106.042 43.725,93.476C42.854,85.804 37.342,85.145 24.499,85.471C21.332,85.551 22.087,88.274 22.089,99.5Z" style="fill:white;"/>
            <path d="M85.475,19.929C88.138,20.281 107.83,22.891 106.06,46.459C103.964,74.38 59.431,74.907 58.056,45.525C57.073,24.513 72.727,21.022 75.446,20.294C76.825,19.925 84.672,19.928 85.475,19.929ZM91.977,38.397C87.48,24.722 72.207,28.668 71.263,42.486C69.997,61.029 97.09,63.706 91.977,38.397Z" style="fill:white;"/>
            <path d="M22.067,22.5C21.976,27.67 21.472,29.784 24.489,29.82C49.29,30.114 50.766,28.874 50.959,31.401C51.705,41.186 50.334,41.463 49.524,41.627C47.363,42.063 23.148,40.821 22.37,42.415C21.472,44.253 22.798,64.224 21.527,65.528C20.843,66.23 18.447,65.795 9.505,66.043C6.323,66.131 6.891,64.422 6.891,43.5C6.891,6.569 6.778,6.334 7.594,5.628C8.078,5.209 8.184,5.252 45.5,5.255C50.017,5.255 53.463,4.027 53.468,8.5C53.474,13.7 54.535,16.948 50.508,16.962C24.683,17.052 22.613,16.357 22.129,18.403C22.053,18.722 22.124,18.706 22.067,22.5Z" style="fill:white;"/>
            <path d="M191.965,44.499C194.123,12.933 221.533,17.754 230.123,24.92C236.956,30.621 238.155,44.401 237.359,45.41C236.773,46.153 232.893,46.153 232.5,46.153C207.019,46.151 206.319,45.874 205.797,47.541C204.206,52.612 216.721,64.756 225.848,51.726C227.591,49.237 229.386,50.422 235.385,53.685C235.862,53.944 237.782,54.988 233.042,60.069C223.491,70.305 194.175,74.858 191.965,44.499ZM218.5,37.927L222.639,37.862C223.665,37.584 223.669,36.64 223.67,36.504C223.694,30.255 211.632,24.78 206.769,34.622C204.622,38.968 209.177,37.925 218.5,37.927Z" style="fill:white;"/>
            <path d="M228.064,111.477C228.24,109.15 229.642,90.662 246.551,88.918C273.953,86.091 273.308,111.666 273.332,113.485C273.361,115.65 269.544,115.135 259.5,115.142C243.255,115.153 241.464,114.454 241.771,117.466C242.668,126.263 251.384,126.197 252.489,126.189C261.345,126.122 260.885,117.395 265.426,119.65C268.57,121.212 273.513,122.526 271.612,125.573C261.61,141.602 227.131,142.956 228.064,111.477ZM250.481,98.112C249.664,98.258 244.05,99.266 242.249,104.421C241.501,106.563 242.198,106.911 244.49,106.918C258.117,106.959 260.072,107.409 259.347,104.539C257.848,98.606 251.355,98.17 250.481,98.112Z" style="fill:white;"/>
            <path d="M82.513,88.906C89.195,89.152 89.194,89.042 90.535,89.343C107.284,93.104 102.892,99.74 103.451,128.501C103.528,132.472 105.755,135.188 100.5,135.028C95.155,134.864 92.594,135.548 91.931,133.353C91.233,131.043 90.343,131.956 88.357,133.258C75.529,141.673 58.782,130.961 64.403,117.455C69.558,105.068 90.646,108.459 90.424,103.499C90.025,94.609 80.959,97.682 79.431,100.458C78.058,102.951 77.628,103.106 67.466,102.903C66.961,102.893 63.194,102.818 66.76,96.639C71.153,89.025 80.062,89.147 82.513,88.906ZM89.969,118.572C90.011,118.261 90.452,115.045 90.209,114.659C89.184,113.033 79.384,117.113 77.777,118.77C71.658,125.083 86.905,131.804 89.969,118.572Z" style="fill:white;"/>
            <path d="M195.034,106.475C194.553,133.4 195.656,134.383 193.624,134.898C192.917,135.077 192.903,134.782 184.503,135.035C180.812,135.147 181.551,133.22 181.551,116.5C181.551,91.409 181.186,90.216 183.443,90.1C184.325,90.055 193.655,89.578 194.469,90.535C194.616,90.708 195.157,93.798 197.16,92.042C202.603,87.273 219.975,86.769 221.091,99.538C221.296,101.887 221.516,133.3 221.021,134.215C220.566,135.055 208.839,136.131 208.234,133.564C207.31,129.636 210.186,104.406 206.081,100.995C204.544,99.718 201.209,99.498 199.595,99.899C195.593,100.894 195.098,105.838 195.034,106.475Z" style="fill:white;"/>
            <path d="M330.496,126.047C331.089,125.974 336.491,125.302 337.514,123.51C340.093,118.994 334.275,118.074 326.433,116.879C315.449,115.205 310.863,107.913 312.363,101.47C317.08,81.203 346.792,90.133 350.159,94.754C350.474,95.186 350.963,95.857 346.103,100.073C342.723,103.005 342.219,102.152 339.41,100.667C332.04,96.77 327.11,99.36 326.682,99.734C321.061,104.654 334.979,105.904 339.585,107.206C356.686,112.04 353.197,125.558 346.885,130.951C332.996,142.816 307.419,130.869 309.84,126.701C310.052,126.336 315.662,121.133 316.562,120.631C319.8,118.824 318.722,124.68 330.496,126.047Z" style="fill:white;"/>
            <path d="M135.482,19.919C136.755,20.077 145.757,21.191 150.506,25.494C152.094,26.934 144.886,34.477 142.268,32.957C128.705,25.079 123.934,32.557 127.694,35.181C130.879,37.404 156.894,36.924 152.092,55.388C147.918,71.442 117.289,68.734 110.703,59.361C109.57,57.75 117.09,50.349 119.229,51.896C120.826,53.051 124.12,56.84 131.489,57.063C138.894,57.287 141.852,50.466 134.565,49.21C132.614,48.874 109.248,47.719 113.286,31.438C114.566,26.281 119.012,23.319 119.727,22.842C125.584,18.94 134.088,19.9 135.482,19.919Z" style="fill:white;"/>
            <path d="M145.052,95.5C145.455,91.764 145.255,91.713 145.485,91.486C146.201,90.782 146.328,91.104 149.55,90.927C153.833,90.693 150.047,78.424 152.414,77.355C153.472,76.878 163.28,77.097 163.605,77.191C165.754,77.809 164.643,86.814 164.888,89.448C165.036,91.039 167.259,91.052 167.504,91.054C171.068,91.074 171.112,90.633 172.605,91.34C173.327,91.681 173.346,96.081 173.348,96.498C173.367,100.89 166.607,98.481 165.494,99.492C164.25,100.623 164.678,100.883 164.817,120.492C164.86,126.543 170.741,123.226 172.361,124.659C173.347,125.53 172.866,133.349 172.786,133.603C172.111,135.76 161.411,136.185 156.439,133.609C147.453,128.953 153.575,102.863 151.19,99.751C149.41,97.43 144.887,101.538 145.052,95.5Z" style="fill:white;"/>
            <path d="M161.496,22.048C163.476,21.735 163.477,21.782 163.634,21.71C165.094,21.037 164.113,11.074 164.498,9.499C164.709,8.635 164.92,7.772 175.536,8.142C178.539,8.247 177.611,13.012 177.668,19.496C177.706,23.836 184.522,21.479 185.572,22.394C186.457,23.167 186.273,27.985 186.254,28.474C186.149,31.227 179.73,29.956 178.482,30.463C177.794,30.743 177.416,30.943 177.525,50.5C177.568,58.26 183.287,54.144 185.192,55.836C185.483,56.094 187.638,65.513 183.44,66.039C160.191,68.955 164.782,55.531 164.388,32.505C164.316,28.318 158.231,31.654 157.933,28.457C157.477,23.561 157.667,21.947 161.496,22.048Z" style="fill:white;"/>
            <path d="M118.5,89.93C118.987,89.931 124.065,89.948 124.573,90.422C125.431,91.221 124.135,95.386 127.671,92.804C129.858,91.207 137.728,88.113 137.966,91.407C138.64,100.725 137.265,101.217 136.497,101.491C133.547,102.547 125.583,101.181 125.448,109.499C125.066,133.092 126.476,134.793 123.567,134.943C112.504,135.514 112.342,134.48 112.2,133.575C112.091,132.882 112.113,91.938 112.186,91.431C112.488,89.35 118.159,89.942 118.5,89.93Z" style="fill:white;"/>
            <path d="M294.054,115.5C294.054,133.333 294.658,134.931 291.512,134.96C282.751,135.041 280.809,135.541 280.789,132.494C280.768,129.218 280.533,92.542 280.816,91.543C281.298,89.839 282.287,90.017 290.499,89.933C293.03,89.907 293.581,89.974 293.738,92.453C293.943,95.719 303.798,87.267 306.389,90.567C306.492,90.699 307.757,100.37 305.428,101.349C304.464,101.754 297.586,102.295 295.533,104.53C293.588,106.648 294.056,111.188 294.054,115.5Z" style="fill:white;"/>
            <path d="M252.5,20.962C257.27,21.036 259.104,20.157 259.499,23.5C259.895,26.849 267.329,19.466 271.674,21.211C273.098,21.783 272.465,30.989 272.298,31.419C271.483,33.51 270.776,32.547 266.475,33.379C258.654,34.893 259.905,37.704 259.9,59.5C259.899,64.076 261.078,66.097 256.499,66.048C248.389,65.962 247.014,66.153 246.765,64.457C246.702,64.031 246.733,23.351 246.767,22.54C246.865,20.207 248.032,21.302 252.5,20.962Z" style="fill:white;"/>
            <path d="M324.507,66.046C324.344,66.004 322.472,65.53 322.472,65.53C321.356,64.387 322.145,46.096 321.895,41.44C321.773,39.152 320.561,39.578 301.5,39.579C296.756,39.579 294.888,40.195 295.113,35.462C295.271,32.161 299.939,33.522 319.493,33.302C323.109,33.262 321.408,31.18 321.914,9.507C322.017,5.111 327.344,7.33 327.497,7.503C328.408,8.527 327.617,29.54 328.009,31.592C328.442,33.862 329.459,33.236 348.5,33.286C353.029,33.298 354.623,33.005 354.393,37.491C354.234,40.593 349.953,39.386 330.501,39.567C326.623,39.603 328.149,43.698 327.916,63.515C327.876,66.895 324.976,65.954 324.507,66.046Z" style="fill:white;"/>
        </g>
    </g>
</svg>
