<?xml version="1.0" encoding="UTF-8" standalone="no"?>
<!DOCTYPE svg PUBLIC "-//W3C//DTD SVG 1.1//EN" "http://www.w3.org/Graphics/SVG/1.1/DTD/svg11.dtd">
<svg width="100%" height="100%" viewBox="0 0 426 62" version="1.1" xmlns="http://www.w3.org/2000/svg" xmlns:xlink="http://www.w3.org/1999/xlink" xml:space="preserve" xmlns:serif="http://www.serif.com/" style="fill-rule:evenodd;clip-rule:evenodd;stroke-linejoin:round;stroke-miterlimit:2;">
    <g transform="matrix(1,0,0,1,-37.140568,-69.109013)">
        <g id="Gaggenau_Hausgeräte_logo.svg.png" transform="matrix(1,0,0,1,35,67)">
            <path d="M165.64,20.967C152.941,21.332 152.551,21.931 148.254,18.858C140.076,13.01 122.388,17.518 122.912,33.476C123.408,48.575 143.817,56.226 152.336,42.414C154.125,39.513 151.877,39.667 148.5,39.687C137.646,39.755 135.431,40.155 135.35,37.513C135.069,28.382 135.364,27.112 137.441,27.031C142.828,26.82 165.339,27.508 166.516,26.523C166.713,26.358 166.612,26.307 167.814,23.585C168.841,21.367 173.226,5.886 192.506,2.537C212.929,-1.011 228.099,19.702 224.378,21.109C224.354,21.118 210.169,21.183 209.59,21.018C208.888,20.818 199.766,12.459 188.628,18.714C175.167,26.274 180.005,51.769 200.479,49.344C207.869,48.468 213.643,39.738 209.479,39.643C195.688,39.328 193.817,41.06 193.533,37.497C192.773,27.944 193.606,27.59 194.361,27.269C195.781,26.664 217.193,27.298 224.498,26.908C228.076,26.718 227.513,29.419 227.437,33.498C226.884,63.131 190.219,74.852 171.793,50.297C168.856,46.383 168.815,41.216 166.721,45.621C153.54,73.337 114.696,67.708 108.724,37.47C104.434,15.749 130.274,-9.424 157.193,7.917C159.05,9.114 162.346,12.82 162.757,13.282C168.476,19.711 165.959,20.527 165.64,20.967Z" style="fill:white;fill-opacity:1;"/>
            <path d="M317.5,3.103C319.679,3.244 322.251,1.624 322.297,6.501C322.643,43.13 322.319,46.042 321.938,49.457C321.713,51.485 323.158,52.023 324.014,50.173C331.465,34.069 344.211,12.177 347.021,6.226C347.13,5.995 348.371,3.365 349.249,3.938C349.55,4.135 365.229,34.547 367.815,39.329C371.52,46.179 373.513,50.788 378.877,60.351C379.859,62.102 379.577,62.811 377.54,62.833C363.688,62.977 363.561,63.042 362.643,62.281C360.709,60.675 360.035,54.022 356.48,53.827C356.114,53.807 341.344,53.807 340.512,53.818C334.901,53.891 337.307,62.807 331.507,62.87C324.055,62.95 323.537,63.847 317.622,59.337C315.063,57.386 315.062,57.409 288.85,38.005C288.035,37.401 288.251,37.218 287.419,36.632C285.321,35.154 285.246,37.246 285.239,37.432C285.175,39.196 285.425,39.161 285.365,59.499C285.353,63.536 283.544,62.38 279.5,62.39C274.207,62.403 269.849,63.057 269.772,60.473C269.712,58.497 269.685,4.728 269.747,4.626C270.946,2.67 272.077,5.562 289.169,17.905C290.234,18.674 290.116,18.816 302.178,27.934C302.253,27.99 303.161,28.777 303.246,28.851C304.791,30.189 304.745,31.625 306.252,30.266C307.316,29.306 305.255,4.21 307.409,3.327C308.16,3.019 313.407,3.103 317.5,3.103ZM350.713,35.406C352.466,39.837 354.654,43.058 351.604,42.963C347.404,42.832 342.874,44.156 344.431,40.472C347.72,32.696 347.763,32.539 348.475,32.432C350.085,32.192 350.612,35.153 350.713,35.406Z" style="fill:white;fill-opacity:0.99;"/>
            <path d="M2.141,32.496C3.018,15.53 13.064,8.398 20.286,5.019C45.491,-6.774 65.664,21.077 59.462,21.169C45.196,21.38 44.27,20.621 43.264,19.796C42.508,19.177 38.206,15.65 31.499,16.484C7.789,19.435 14.64,55.008 38.588,48.775C43.252,47.562 46.564,42.166 46.692,41.552C47.282,38.705 45.187,40.052 31.487,39.681C30.541,39.656 29.329,39.399 29.269,37.522C28.974,28.284 28.975,26.843 32.502,26.908C56.136,27.346 56.096,26.711 61.576,27.042C62.419,27.093 65.101,27.256 63.251,37.46C56.636,73.934 3.266,71.546 2.141,32.496Z" style="fill:white;fill-opacity:1;"/>
            <path d="M427.875,10.5C427.875,37.829 430.186,53.701 412.429,61.314C396.66,68.075 373.715,61.58 373.174,35.514C373.121,32.956 372.537,4.763 373.541,3.533C374.349,2.543 387.287,2.22 388.142,3.685C390.093,7.024 384.749,39.447 392.491,46.51C398.617,52.099 412.287,49.561 412.633,35.512C413.021,19.795 411.793,3.729 413.666,2.963C414.267,2.717 426.337,2.835 426.432,2.866C428.523,3.55 427.865,8.57 427.875,10.5Z" style="fill:white;fill-opacity:0.99;"/>
            <path d="M263.501,3.064C267.898,3.306 266.709,5.139 266.709,9.5C266.709,11.392 267.151,16.347 265.739,16.934C263.001,18.072 247.044,15.967 246.117,18.307C245.817,19.064 244.751,25.903 247.541,26.264C251.222,26.74 264.755,25.149 265.426,27.525C265.638,28.278 265.627,37.061 265.406,37.466C263.815,40.369 247.094,37.023 245.963,39.676C245.847,39.948 245.261,46.306 246.579,47.371C247.895,48.434 265.763,46.745 266.533,48.482C266.905,49.321 266.947,60.854 266.482,61.488C265.424,62.931 230.72,62.118 230.675,62.095C228.313,60.932 230.809,36.914 229.871,26.524C229.637,23.943 229.732,4.775 229.809,4.57C230.525,2.668 233.921,3.149 241.498,3.124C248.832,3.104 256.167,3.084 263.501,3.064Z" style="fill:white;fill-opacity:0.99;"/>
            <path d="M66.5,62.872C58.921,62.876 55.21,63.385 55.433,61.492C55.472,61.157 63.071,47.47 67.193,39.339C68.586,36.59 68.731,36.743 85.201,5.279C87.015,1.814 87.822,5.41 89.877,9.304C102.889,33.961 113.766,55.967 116.702,60.419C116.82,60.598 118.252,62.768 115.558,62.836C100.901,63.206 100.631,63.065 99.975,62.003C97.788,58.461 97.931,53.834 93.497,53.812C76.579,53.725 76.032,53.645 74.992,55.752C74.689,56.366 73.841,58.69 72.703,60.604C70.838,63.742 70.108,62.787 66.5,62.872ZM88.51,35.496C89.4,37.605 91.506,41.692 90.585,42.583C90.357,42.804 82.623,43.689 81.82,42.348C81.24,41.38 83.496,38.607 85.378,33.42C86.115,31.389 87.193,32.158 87.97,34.209C88.009,34.313 88.01,34.304 88.51,35.496Z" style="fill:white;fill-opacity:1;"/>
        </g>
    </g>
</svg>
