<?xml version="1.0" encoding="UTF-8" standalone="no"?>
<!DOCTYPE svg PUBLIC "-//W3C//DTD SVG 1.1//EN" "http://www.w3.org/Graphics/SVG/1.1/DTD/svg11.dtd">
<svg width="100%" height="100%" viewBox="0 0 283 107" version="1.1" xmlns="http://www.w3.org/2000/svg" xmlns:xlink="http://www.w3.org/1999/xlink" xml:space="preserve" xmlns:serif="http://www.serif.com/" style="fill-rule:evenodd;clip-rule:evenodd;stroke-linejoin:round;stroke-miterlimit:2;">
    <g transform="matrix(1,0,0,1,-108.712819,-46.693013)">
        <g id="Large_Knoll.png" transform="matrix(1,0,0,1,107,45)">
            <path d="M59.492,2.398C84.4,2.441 86.004,1.468 85.646,3.532C85.595,3.82 85.28,3.543 83.482,6.488C81.54,6.933 81.923,7.454 81.65,7.702C80.418,8.697 80.542,8.754 76.568,13.566C75.96,13.956 75.352,14.346 74.744,14.737C74.412,15.071 74.08,15.405 73.747,15.74C73.418,16.079 73.088,16.419 72.758,16.758C72.359,17.36 71.961,17.961 71.562,18.562C70.966,18.962 70.37,19.363 69.774,19.763C69.445,20.099 69.115,20.435 68.786,20.771C68.453,21.11 68.121,21.448 67.788,21.786C67.453,22.121 67.119,22.456 66.784,22.791C66.454,23.125 66.123,23.459 65.793,23.793C65.377,24.377 64.961,24.961 64.546,25.545C50.458,39.382 49.816,40.211 48.71,41.639C48.274,42.167 47.917,41.903 47.89,42.632C47.859,43.491 47.867,43.406 47.841,44.295C49.992,45.123 49.344,46.257 51.549,48.456C51.671,49.206 51.726,49.127 52.728,51.347L53.802,52.306C54.097,52.667 54.392,53.028 54.687,53.388C54.968,53.75 55.25,54.112 55.532,54.474C56.241,57.25 57.295,56.371 57.484,56.51C57.73,56.91 57.458,56.948 57.719,57.37C57.776,57.464 57.719,57.37 58.575,58.442C58.951,60.412 59.445,60.07 59.699,60.383C59.982,60.743 60.264,61.103 60.547,61.463C60.928,62.103 61.309,62.743 61.689,63.383C63.685,65.896 63.236,66.093 65.556,68.452C65.923,70.38 66.393,70.044 66.68,70.395C67.846,72.595 69.398,74.099 69.685,74.377C70.607,75.984 70.354,76.266 71.461,76.521C71.787,77.44 72.332,78.978 78.175,86.703C79.27,88.15 79.012,88.238 80.165,89.712C81.353,91.231 81.318,91.214 81.554,91.452C81.859,93.017 81.86,93.212 83.482,93.51C84.292,96.097 84.667,95.849 85.78,98.276C88.213,103.392 89.57,101.876 89.648,101.482C89.779,100.825 89.211,100.153 89.342,99.495C89.033,98.496 88.724,97.497 88.415,96.498C88.363,91.375 87.8,35.706 88.344,32.461C88.618,30.824 94.633,31.129 106.515,31.217C110.905,31.249 107.574,41.171 110.189,37.126C113.884,31.411 114.804,32.513 120.663,28.841C122.196,29.035 122.111,28.835 123.484,28.299L126.437,28.166C127.562,28.201 133.4,28.178 133.564,28.173C137.486,28.977 137.4,28.852 141.317,29.871C144.205,30.622 143.679,31.621 146.479,32.539C146.986,34.77 147.671,34.146 147.768,34.242C148.083,34.609 148.398,34.976 148.713,35.344C153.589,42.205 153.802,42.032 154.178,42.658C153.94,44.105 154.078,44.011 154.668,45.467C155.363,47.248 156.041,51.126 156.128,51.625C156.038,53.634 156.218,53.508 156.652,55.5L156.621,56.5C156.213,59.523 156.096,59.432 156.252,62.51C156.13,68.031 156.15,67.94 156.252,73.49C156.087,76.086 156.193,75.966 156.619,78.5C156.672,96.39 157.224,103.387 155.575,103.7C155.434,103.727 135.717,103.757 135.427,103.701C132.644,103.159 135.586,63.232 133.834,55.373C134.069,53.468 133.615,53.595 132.199,50.703C131.907,50.349 131.616,49.996 131.325,49.642C131.002,49.341 130.68,49.039 130.357,48.738C129.69,48.435 129.024,48.133 128.358,47.831C123.614,46.01 123.537,46.595 118.623,47.813C117.954,48.122 117.285,48.432 116.617,48.741C106.032,59.06 110.978,61.389 109.692,102.551C109.64,104.219 104.312,103.808 63.46,103.659C62.812,103.269 62.163,102.88 61.515,102.49C59.74,98.794 60.09,98.629 57.348,95.644C56.949,93.508 56.411,93.94 55.302,92.61C53.878,90.411 54,90.488 52.456,88.538C51.868,86.321 51.382,86.762 51.275,86.63C50.996,86.269 50.717,85.908 50.438,85.547C50.063,84.901 49.687,84.256 49.312,83.61C49.027,83.251 48.742,82.893 48.457,82.534C48.072,81.895 47.688,81.257 47.303,80.618C47.016,80.26 46.73,79.903 46.443,79.545C46.1,77.887 46.093,77.783 44.486,77.509L44.261,76.632C43.944,75.958 43.626,75.285 43.309,74.611C43.028,74.25 42.747,73.888 42.466,73.527C41.838,70.665 40.706,71.645 40.499,71.501L40.154,69.735C39.891,69.448 40.369,68.868 38.498,68.501L38.282,67.619C37.958,66.95 37.633,66.282 37.308,65.613C37.063,65.3 35.396,63.173 34.44,61.547C34.382,61.306 34.03,59.822 33.306,58.658C32.174,57.59 32.057,57.973 30.674,58.719L30.503,59.505C27.36,63.389 26.731,62.688 23.557,66.549C21.743,68.757 23.116,100.27 22.714,102.558C22.507,103.738 13.322,103.719 12.5,103.717C5.477,103.703 1.953,106.553 2.034,99.5C3.04,12.017 1.032,12.064 1.97,4.524C2.164,2.96 2.547,1.474 21.556,2.33C23.204,2.404 22.749,7.985 22.638,35.49C22.268,36.491 21.899,37.492 21.529,38.494C23.158,40.48 23.606,39.253 25.094,37.057C25.492,36.486 25.89,35.915 26.288,35.344C26.673,34.711 27.057,34.077 27.442,33.443C30.853,30.629 30.922,30.775 32.213,29.245C32.448,28.99 32.932,29.356 33.446,27.446C34.036,27.036 34.626,26.627 35.216,26.217C35.637,25.638 36.058,25.058 36.478,24.479C40.475,20.401 40.897,20.917 44.275,16.346C45.946,16.044 46.023,15.935 46.358,14.301C46.671,14.064 46.64,14.064 49.306,11.366C49.46,11.18 50.229,11.658 50.385,9.385C52.473,9.217 52.051,8.57 52.364,8.309C52.804,7.968 52.753,7.974 55.303,5.36C55.68,4.913 56.165,5.287 56.402,3.4C57.523,3.28 57.433,3.183 59.492,2.398Z" style="fill:white;fill-opacity:0.98;"/>
            <path d="M193.439,28.17C195.478,28.246 200.313,28.207 201.561,28.165C202.981,28.277 211.854,28.978 218.619,33.279C218.87,33.49 218.508,34.011 220.541,34.453C221.546,35.445 222.453,36.17 222.628,36.31C222.984,36.633 223.34,36.956 223.696,37.279C224.324,37.66 224.952,38.042 225.579,38.423C225.952,39.07 226.325,39.718 226.698,40.365C227.596,41.491 227.545,41.431 228.549,42.456C228.969,44.514 229.286,44.292 230.485,44.508C232.269,50.358 233.269,49.864 235.14,55.646C234.987,57.108 235.104,56.975 235.583,58.488L235.613,60.471C235.643,62.112 235.696,61.999 236.142,63.517C235.723,69.1 236.054,71.772 236.142,72.484C235.553,74.511 235.649,74.444 235.629,76.532L235.582,77.512C235.141,78.904 234.977,78.82 235.14,80.354C232.196,89.448 230.956,88.82 230.745,89.612L229.766,90.651C228.731,92.983 228.682,92.937 228.573,93.56C226.72,95.712 226.316,95.243 224.682,97.632C224.371,98 224.06,98.369 223.749,98.737C222.736,99.431 221.723,100.124 220.71,100.818C219.441,101.544 219.789,101.843 218.525,102.533C217.883,102.921 217.242,103.309 216.6,103.696C216.276,103.922 216.312,103.78 212.356,106.205C210.35,105.681 210.359,105.848 208.575,106.772L208.382,107.192C206.355,106.681 206.409,106.794 204.507,107.656C196.906,107.533 196.991,107.596 191.495,107.626C189.058,106.852 189.09,106.48 186.617,107.203L186.42,106.779C185.028,106.184 185.127,105.966 183.628,106.18L183.406,105.784C182.72,105.473 182.034,105.161 181.347,104.85C179.271,103.799 179.39,103.751 178.47,103.542C177.381,102.715 175.644,101.827 175.388,101.696C175.068,101.437 175.391,100.977 173.452,100.553C173.057,100.151 169.821,96.854 168.364,95.664C167.981,93.744 167.515,94.078 166.304,92.621C166.024,92.257 165.743,91.894 165.462,91.53C164.748,88.789 163.563,89.552 163.496,89.503L163.247,88.628C162.322,85.996 162.392,86.106 161.316,83.528C157.268,68.749 158.552,63.536 161.314,52.472C162.18,50.358 163.009,48.658 163.168,48.331C164.207,46.317 164.292,46.438 164.451,45.459C166.259,43.698 166.367,43.826 167.34,41.436C167.372,41.393 168.21,41.992 168.386,39.388C170.362,39.192 169.969,38.634 170.363,38.306C172.098,36.975 172.158,37.139 173.464,35.462C175.096,35.073 175.184,35.06 175.498,33.496C183.363,32.071 182.5,29.014 193.439,28.17ZM190.558,46.583C191.154,46.28 190.915,46.092 191.601,45.777C197.133,43.24 205.815,44.892 210.289,50.633C210.674,51.269 211.059,51.905 211.445,52.541C214.08,55.797 214.263,59.836 214.294,60.512C214.399,64.708 214.088,64.66 214.84,68.579C213.735,71.892 214.3,75.442 214.299,75.488C213.422,79.751 213.608,79.724 211.45,83.462C211.287,83.618 210.431,84.437 209.403,85.408C208.666,86.297 208.7,86.179 208.312,87.339C206.54,89.105 203.885,90.152 203.462,90.319C200.289,90.434 200.381,90.284 197.501,91.305L196.546,91.241C194.788,89.947 194.736,90.44 192.521,90.332C189.446,89.979 189.433,89.811 187.552,87.445C187.221,87.11 186.891,86.774 186.561,86.439C185.547,85.454 184.7,84.626 184.538,84.469C184.256,84.11 183.974,83.752 183.692,83.394C183.373,82.726 183.054,82.058 182.735,81.39C178.87,76.02 178.213,53.831 187.489,48.481C189.014,47.502 189.096,47.875 190.558,46.583Z" style="fill:white;fill-opacity:0.98;"/>
            <path d="M244.5,103.717C244.03,103.69 238.629,103.374 238.629,103.374C238.301,103.044 238.298,97.971 238.298,97.5C238.284,75.379 238.808,75.522 238.304,53.5C238.213,49.496 237.284,8.9 238.312,3.442C238.631,1.745 259.517,1.765 259.654,3.452C259.683,3.804 259.667,102.387 259.662,102.547C259.599,104.321 248.989,103.706 244.5,103.717Z" style="fill:white;fill-opacity:0.97;"/>
            <path d="M283.966,27.5C283.966,102.529 284.195,103.602 282.535,103.672C264.149,104.446 263.579,104.07 263.31,102.553C263.295,102.465 263.308,13.263 263.309,5.499C263.31,-0.523 266.42,2.398 272.5,2.425C282.087,2.47 282.94,1.095 283.768,3.358C284.036,4.09 283.966,10.222 283.966,27.5Z" style="fill:white;fill-opacity:0.98;"/>
            <path d="M118.623,47.813C123.537,46.595 123.614,46.01 128.358,47.831L127.617,48.203C124.367,46.959 120.126,48.07 119.387,48.212L118.623,47.813Z" style="fill:white;fill-opacity:0.16;"/>
            <path d="M85.78,98.276C86.777,98.374 87.774,98.472 88.772,98.571L89.342,99.495C89.211,100.153 89.779,100.825 89.648,101.482C89.57,101.876 88.213,103.392 85.78,98.276Z" style="fill:white;fill-opacity:0.13;"/>
            <path d="M214.294,60.512C215.58,63.955 215.723,63.947 215.235,67.528L214.84,68.579C214.088,64.66 214.399,64.708 214.294,60.512Z" style="fill:white;fill-opacity:0.13;"/>
            <path d="M215.235,67.528C215.607,71.648 215.713,71.588 214.299,75.488C214.3,75.442 213.735,71.892 214.84,68.579L215.235,67.528Z" style="fill:white;fill-opacity:0.14;"/>
            <path d="M193.439,28.17C196.94,26.604 197.929,26.556 201.561,28.165C200.313,28.207 195.478,28.246 193.439,28.17Z" style="fill:white;fill-opacity:0.17;"/>
            <path d="M22.603,36.472C24.934,36.975 24.889,37.051 25.094,37.057C23.606,39.253 23.158,40.48 21.529,38.494C21.887,37.82 22.245,37.146 22.603,36.472Z" style="fill:white;fill-opacity:0.12;"/>
            <path d="M126.437,28.166C129.922,26.62 130.085,26.617 133.564,28.173C133.4,28.178 127.562,28.201 126.437,28.166Z" style="fill:white;fill-opacity:0.18;"/>
            <path d="M203.462,90.319C203.443,90.328 203.416,91.517 197.501,91.305C200.381,90.284 200.289,90.434 203.462,90.319Z" style="fill:white;fill-opacity:0.16;"/>
            <path d="M30.674,58.719L33.306,58.658C34.03,59.822 34.382,61.306 34.44,61.547C32.778,59.919 32.895,59.69 30.503,59.505L30.674,58.719Z" style="fill:white;fill-opacity:0.12;"/>
            <path d="M161.316,83.528C162.392,86.106 162.322,85.996 163.247,88.628C162.012,86.2 161.553,86.398 161.316,83.528Z" style="fill:white;fill-opacity:0.16;"/>
            <path d="M186.617,107.203C189.09,106.48 189.058,106.852 191.495,107.626C189.827,107.589 189.815,108.112 186.617,107.203Z" style="fill:white;fill-opacity:0.16;"/>
            <path d="M163.259,47.378L163.168,48.331C163.009,48.658 162.18,50.358 161.314,52.472C161.577,49.475 162.051,49.752 163.259,47.378Z" style="fill:white;fill-opacity:0.17;"/>
            <path d="M46.358,14.301C46.023,15.935 45.946,16.044 44.275,16.346C44.806,14.851 44.828,14.814 46.358,14.301Z" style="fill:white;fill-opacity:0.1;"/>
            <path d="M132.199,50.703C133.615,53.595 134.069,53.468 133.834,55.373C132.796,53.351 132.354,51.938 132.257,51.627L132.199,50.703Z" style="fill:white;fill-opacity:0.19;"/>
            <path d="M192.521,90.332C194.736,90.44 194.788,89.947 196.546,91.241C192.775,91.415 193.045,90.593 192.521,90.332Z" style="fill:white;fill-opacity:0.14;"/>
            <path d="M223.749,98.737L223.603,99.606C222.518,100.529 220.957,100.778 220.71,100.818C221.723,100.124 222.736,99.431 223.749,98.737Z" style="fill:white;fill-opacity:0.21;"/>
            <path d="M156.621,56.5C156.498,58.503 156.375,60.506 156.252,62.51C156.096,59.432 156.213,59.523 156.621,56.5Z" style="fill:white;fill-opacity:0.28;"/>
            <path d="M55.302,92.61C56.411,93.94 56.949,93.508 57.348,95.644C55.944,94.312 56.124,94.305 55.302,92.61Z" style="fill:white;fill-opacity:0.17;"/>
            <path d="M166.304,92.621C167.515,94.078 167.981,93.744 168.364,95.664C167.012,94.341 167.168,94.352 166.304,92.621Z" style="fill:white;fill-opacity:0.2;"/>
            <path d="M204.507,107.656C206.409,106.794 206.355,106.681 208.382,107.192C206.48,107.722 206.522,107.563 204.507,107.656Z" style="fill:white;fill-opacity:0.15;"/>
            <path d="M208.575,106.772C210.359,105.848 210.35,105.681 212.356,106.205C210.455,106.748 210.551,106.614 208.575,106.772Z" style="fill:white;fill-opacity:0.15;"/>
            <path d="M156.252,73.49C156.374,75.16 156.497,76.83 156.619,78.5C156.193,75.966 156.087,76.086 156.252,73.49Z" style="fill:white;fill-opacity:0.27;"/>
            <path d="M190.558,46.583C189.096,47.875 189.014,47.502 187.489,48.481C188.6,46.922 188.557,46.819 190.558,46.583Z" style="fill:white;fill-opacity:0.16;"/>
            <path d="M30.674,58.719C32.057,57.973 32.174,57.59 33.306,58.658L30.674,58.719Z" style="fill:white;fill-opacity:0.17;"/>
            <path d="M52.592,49.418C53.363,50.291 53.338,50.235 53.752,51.36L53.802,52.306L52.728,51.347C52.682,50.704 52.637,50.061 52.592,49.418Z" style="fill:white;fill-opacity:0.12;"/>
            <path d="M236.142,72.484C236.082,74.579 236.521,74.589 235.629,76.532C235.649,74.444 235.553,74.511 236.142,72.484Z" style="fill:white;fill-opacity:0.27;"/>
            <path d="M51.549,48.456C51.897,48.777 52.244,49.097 52.592,49.418C52.637,50.061 52.682,50.704 52.728,51.347C51.726,49.127 51.671,49.206 51.549,48.456Z" style="fill:white;fill-opacity:0.17;"/>
            <path d="M156.128,51.625C156.635,53.551 156.497,53.43 156.652,55.5C156.218,53.508 156.038,53.634 156.128,51.625Z" style="fill:white;fill-opacity:0.26;"/>
            <path d="M230.745,89.612C230.372,91.279 230.649,91.31 229.585,92.574C229.645,91.933 229.705,91.292 229.766,90.651L230.745,89.612Z" style="fill:white;fill-opacity:0.13;"/>
            <path d="M59.492,2.398C57.433,3.183 57.523,3.28 56.402,3.4C57.775,2.308 57.771,2.503 59.492,2.398Z" style="fill:white;fill-opacity:0.16;"/>
            <path d="M40.499,71.501C40.706,71.645 41.838,70.665 42.466,73.527C41.412,72.518 41.469,72.577 40.499,71.501Z" style="fill:white;fill-opacity:0.13;"/>
            <path d="M229.766,90.651C229.705,91.292 229.645,91.933 229.585,92.574C229.247,92.903 228.91,93.231 228.573,93.56C228.682,92.937 228.731,92.983 229.766,90.651Z" style="fill:white;fill-opacity:0.2;"/>
            <path d="M48.71,41.639C48.421,42.524 48.131,43.409 47.841,44.295C47.867,43.406 47.859,43.491 47.89,42.632C47.917,41.903 48.274,42.167 48.71,41.639Z" style="fill:white;fill-opacity:0.07;"/>
            <path d="M164.451,45.459C164.292,46.438 164.207,46.317 163.168,48.331L163.259,47.378C163.68,46.258 163.635,46.36 164.451,45.459Z" style="fill:white;fill-opacity:0.16;"/>
            <path d="M228.549,42.456C229.573,43.431 229.526,43.375 230.485,44.508C229.286,44.292 228.969,44.514 228.549,42.456Z" style="fill:white;fill-opacity:0.14;"/>
            <path d="M178.47,103.542C179.39,103.751 179.271,103.799 181.347,104.85L180.656,105.186C179.523,104.461 178.635,103.686 178.47,103.542Z" style="fill:white;fill-opacity:0.22;"/>
            <path d="M81.554,91.452C82.615,92.458 82.567,92.408 83.482,93.51C81.86,93.212 81.859,93.017 81.554,91.452Z" style="fill:white;fill-opacity:0.14;"/>
            <path d="M44.486,77.509C46.093,77.783 46.1,77.887 46.443,79.545C45.366,78.507 45.453,78.595 44.486,77.509Z" style="fill:white;fill-opacity:0.14;"/>
            <path d="M69.685,74.377C70.637,75.489 70.588,75.432 71.461,76.521C70.354,76.266 70.607,75.984 69.685,74.377Z" style="fill:white;fill-opacity:0.15;"/>
            <path d="M73.747,15.74L74.556,15.555C74.395,15.715 73.551,16.551 72.556,17.556L72.758,16.758C73.088,16.419 73.418,16.079 73.747,15.74Z" style="fill:white;fill-opacity:0.15;"/>
            <path d="M211.45,83.462C210.839,86.164 209.414,85.401 209.403,85.408C210.431,84.437 211.287,83.618 211.45,83.462Z" style="fill:white;fill-opacity:0.13;"/>
            <path d="M175.498,33.496C175.184,35.06 175.096,35.073 173.464,35.462C174.473,34.393 174.398,34.465 175.498,33.496Z" style="fill:white;fill-opacity:0.15;"/>
            <path d="M55.532,54.474C56.611,55.522 56.544,55.457 57.484,56.51C57.295,56.371 56.241,57.25 55.532,54.474Z" style="fill:white;fill-opacity:0.16;"/>
            <path d="M163.496,89.503C163.563,89.552 164.748,88.789 165.462,91.53C164.406,90.492 164.455,90.541 163.496,89.503Z" style="fill:white;fill-opacity:0.16;"/>
            <path d="M118.623,47.813L119.387,48.212C118.464,48.388 117.54,48.565 116.617,48.741C117.285,48.432 117.954,48.122 118.623,47.813Z" style="fill:white;fill-opacity:0.12;"/>
            <path d="M184.538,84.469C184.7,84.626 185.547,85.454 186.561,86.439L185.779,86.228C185.365,85.642 184.952,85.055 184.538,84.469Z" style="fill:white;fill-opacity:0.15;"/>
            <path d="M68.786,20.771L69.549,20.548C68.541,21.541 67.701,22.381 67.541,22.541L67.788,21.786C68.121,21.448 68.453,21.11 68.786,20.771Z" style="fill:white;fill-opacity:0.18;"/>
            <path d="M36.478,24.479C36.058,25.058 35.637,25.638 35.216,26.217L34.454,26.454C35.47,25.47 36.317,24.637 36.478,24.479Z" style="fill:white;fill-opacity:0.18;"/>
            <path d="M22.638,35.49L22.603,36.472C22.245,37.146 21.887,37.82 21.529,38.494C21.899,37.492 22.268,36.491 22.638,35.49Z" style="fill:white;fill-opacity:0.29;"/>
            <path d="M235.613,60.471C235.789,61.487 235.966,62.502 236.142,63.517C235.696,61.999 235.643,62.112 235.613,60.471Z" style="fill:white;fill-opacity:0.28;"/>
            <path d="M223.696,37.279L224.579,37.418C224.912,37.753 225.246,38.088 225.579,38.423C224.952,38.042 224.324,37.66 223.696,37.279Z" style="fill:white;fill-opacity:0.1;"/>
            <path d="M128.358,47.831C129.024,48.133 129.69,48.435 130.357,48.738C129.444,48.559 128.53,48.381 127.617,48.203L128.358,47.831Z" style="fill:white;fill-opacity:0.16;"/>
            <path d="M154.178,42.658C154.341,43.594 154.504,44.53 154.668,45.467C154.078,44.011 153.94,44.105 154.178,42.658Z" style="fill:white;fill-opacity:0.18;"/>
            <path d="M181.347,104.85C182.034,105.161 182.72,105.473 183.406,105.784C182.489,105.585 181.573,105.385 180.656,105.186L181.347,104.85Z" style="fill:white;fill-opacity:0.18;"/>
            <path d="M183.628,106.18C185.127,105.966 185.028,106.184 186.42,106.779C185.489,106.58 184.559,106.38 183.628,106.18Z" style="fill:white;fill-opacity:0.18;"/>
            <path d="M120.663,28.841C122.104,28.439 122.041,28.465 123.484,28.299C122.111,28.835 122.196,29.035 120.663,28.841Z" style="fill:white;fill-opacity:0.19;"/>
            <path d="M168.386,39.388C168.21,41.992 167.372,41.393 167.34,41.436C167.697,40.213 167.634,40.324 168.386,39.388Z" style="fill:white;fill-opacity:0.09;"/>
            <path d="M50.385,9.385C50.229,11.658 49.46,11.18 49.306,11.366C49.678,10.223 49.607,10.331 50.385,9.385Z" style="fill:white;fill-opacity:0.09;"/>
            <path d="M52.364,8.309C52.051,8.57 52.473,9.217 50.385,9.385C51.283,8.655 51.227,8.678 52.364,8.309Z" style="fill:white;fill-opacity:0.09;"/>
            <path d="M170.363,38.306C169.969,38.634 170.362,39.192 168.386,39.388C169.282,38.667 169.157,38.703 170.363,38.306Z" style="fill:white;fill-opacity:0.1;"/>
            <path d="M146.479,32.539C146.842,32.836 147.205,33.133 147.568,33.43L147.768,34.242C147.671,34.146 146.986,34.77 146.479,32.539Z" style="fill:white;fill-opacity:0.14;"/>
            <path d="M76.568,13.566C76.234,13.899 75.899,14.231 75.564,14.564L74.744,14.737C75.352,14.346 75.96,13.956 76.568,13.566Z" style="fill:white;fill-opacity:0.12;"/>
            <path d="M222.628,36.31C223.759,36.687 223.681,36.679 224.579,37.418L223.696,37.279C223.34,36.956 222.984,36.633 222.628,36.31Z" style="fill:white;fill-opacity:0.12;"/>
            <path d="M224.682,97.632C224.307,98.788 224.344,98.676 223.603,99.606L223.749,98.737C224.06,98.369 224.371,98 224.682,97.632Z" style="fill:white;fill-opacity:0.11;"/>
            <path d="M56.402,3.4C56.165,5.287 55.68,4.913 55.303,5.36C55.69,4.208 55.651,4.32 56.402,3.4Z" style="fill:white;fill-opacity:0.11;"/>
            <path d="M74.744,14.737L75.564,14.564C75.228,14.894 74.892,15.225 74.556,15.555L73.747,15.74C74.08,15.405 74.412,15.071 74.744,14.737Z" style="fill:white;fill-opacity:0.13;"/>
            <path d="M38.498,68.501C40.369,68.868 39.891,69.448 40.154,69.735C39.129,69.331 39.203,69.329 38.498,68.501Z" style="fill:white;fill-opacity:0.13;"/>
            <path d="M209.403,85.408C209.154,87.385 208.595,87.003 208.312,87.339C208.7,86.179 208.666,86.297 209.403,85.408Z" style="fill:white;fill-opacity:0.11;"/>
            <path d="M225.579,38.423C226.313,39.32 226.303,39.212 226.698,40.365C226.325,39.718 225.952,39.07 225.579,38.423Z" style="fill:white;fill-opacity:0.13;"/>
            <path d="M83.482,6.488C82.671,7.29 82.768,7.3 81.65,7.702C81.923,7.454 81.54,6.933 83.482,6.488Z" style="fill:white;fill-opacity:0.13;"/>
            <path d="M72.758,16.758L72.556,17.556C72.225,17.891 71.893,18.227 71.562,18.562C71.961,17.961 72.359,17.36 72.758,16.758Z" style="fill:white;fill-opacity:0.15;"/>
            <path d="M71.562,18.562C71.227,18.894 70.893,19.226 70.559,19.558L69.774,19.763C70.37,19.363 70.966,18.962 71.562,18.562Z" style="fill:white;fill-opacity:0.15;"/>
            <path d="M53.752,51.36C54.063,52.036 54.375,52.712 54.687,53.388C54.392,53.028 54.097,52.667 53.802,52.306L53.752,51.36Z" style="fill:white;fill-opacity:0.16;"/>
            <path d="M65.556,68.452C66.295,69.316 66.291,69.239 66.68,70.395C66.393,70.044 65.923,70.38 65.556,68.452Z" style="fill:white;fill-opacity:0.15;"/>
            <path d="M61.515,102.49C62.163,102.88 62.812,103.269 63.46,103.659C62.307,103.302 62.404,103.346 61.515,102.49Z" style="fill:white;fill-opacity:0.18;"/>
            <path d="M218.619,33.279C219.792,33.712 219.681,33.7 220.541,34.453C218.508,34.011 218.87,33.49 218.619,33.279Z" style="fill:white;fill-opacity:0.16;"/>
            <path d="M69.774,19.763L70.559,19.558C70.222,19.888 69.886,20.218 69.549,20.548L68.786,20.771C69.115,20.435 69.445,20.099 69.774,19.763Z" style="fill:white;fill-opacity:0.15;"/>
            <path d="M58.575,58.442C59.304,59.314 59.296,59.237 59.699,60.383C59.445,60.07 58.951,60.412 58.575,58.442Z" style="fill:white;fill-opacity:0.16;"/>
            <path d="M43.309,74.611C43.626,75.285 43.944,75.958 44.261,76.632C43.944,75.958 43.626,75.285 43.309,74.611Z" style="fill:white;fill-opacity:0.17;"/>
            <path d="M235.582,77.512C235.435,78.459 235.287,79.407 235.14,80.354C234.977,78.82 235.141,78.904 235.582,77.512Z" style="fill:white;fill-opacity:0.22;"/>
            <path d="M235.14,55.646C235.287,56.593 235.435,57.541 235.583,58.488C235.104,56.975 234.987,57.108 235.14,55.646Z" style="fill:white;fill-opacity:0.22;"/>
            <path d="M185.779,86.228L186.561,86.439C186.891,86.774 187.221,87.11 187.552,87.445C185.373,86.934 185.916,86.358 185.779,86.228Z" style="fill:white;fill-opacity:0.16;"/>
            <path d="M37.308,65.613C37.633,66.282 37.958,66.95 38.282,67.619C37.958,66.95 37.633,66.282 37.308,65.613Z" style="fill:white;fill-opacity:0.18;"/>
            <path d="M173.452,100.553C175.391,100.977 175.068,101.437 175.388,101.696C174.261,101.301 174.339,101.31 173.452,100.553Z" style="fill:white;fill-opacity:0.17;"/>
            <path d="M49.312,83.61C49.687,84.256 50.063,84.901 50.438,85.547C49.694,84.658 49.705,84.736 49.312,83.61Z" style="fill:white;fill-opacity:0.17;"/>
            <path d="M131.325,49.642C131.616,49.996 131.907,50.349 132.199,50.703L132.257,51.627C131.947,50.966 131.636,50.304 131.325,49.642Z" style="fill:white;fill-opacity:0.16;"/>
            <path d="M60.547,61.463C60.928,62.103 61.309,62.743 61.689,63.383C61.309,62.743 60.928,62.103 60.547,61.463Z" style="fill:white;fill-opacity:0.18;"/>
            <path d="M66.784,22.791L66.547,23.548C66.215,23.882 65.884,24.217 65.552,24.551L65.793,23.793C66.123,23.459 66.454,23.125 66.784,22.791Z" style="fill:white;fill-opacity:0.17;"/>
            <path d="M65.793,23.793L65.552,24.551C65.216,24.882 64.881,25.213 64.546,25.545C64.961,24.961 65.377,24.377 65.793,23.793Z" style="fill:white;fill-opacity:0.18;"/>
            <path d="M67.788,21.786L67.541,22.541C67.21,22.877 66.879,23.212 66.547,23.548L66.784,22.791C67.119,22.456 67.453,22.121 67.788,21.786Z" style="fill:white;fill-opacity:0.18;"/>
            <path d="M218.525,102.533C217.883,102.921 217.242,103.309 216.6,103.696C217.242,103.309 217.883,102.921 218.525,102.533Z" style="fill:white;fill-opacity:0.21;"/>
            <path d="M182.735,81.39C183.054,82.058 183.373,82.726 183.692,83.394C183.373,82.726 183.054,82.058 182.735,81.39Z" style="fill:white;fill-opacity:0.19;"/>
            <path d="M47.303,80.618C47.688,81.257 48.072,81.895 48.457,82.534C48.072,81.895 47.688,81.257 47.303,80.618Z" style="fill:white;fill-opacity:0.18;"/>
            <path d="M33.446,27.446C32.932,29.356 32.448,28.99 32.213,29.245C32.659,28.199 32.611,28.293 33.446,27.446Z" style="fill:white;fill-opacity:0.19;"/>
            <path d="M210.289,50.633C210.674,51.269 211.059,51.905 211.445,52.541C211.059,51.905 210.674,51.269 210.289,50.633Z" style="fill:white;fill-opacity:0.17;"/>
            <path d="M88.415,96.498C88.724,97.497 89.033,98.496 89.342,99.495L88.772,98.571L88.415,96.498Z" style="fill:white;fill-opacity:0.32;"/>
            <path d="M147.568,33.43C147.95,34.068 148.332,34.706 148.713,35.344C148.398,34.976 148.083,34.609 147.768,34.242L147.568,33.43Z" style="fill:white;fill-opacity:0.17;"/>
            <path d="M34.454,26.454L35.216,26.217C34.626,26.627 34.036,27.036 33.446,27.446C33.782,27.115 34.118,26.784 34.454,26.454Z" style="fill:white;fill-opacity:0.19;"/>
            <path d="M51.275,86.63C51.382,86.762 51.868,86.321 52.456,88.538C52.063,87.902 51.669,87.266 51.275,86.63Z" style="fill:white;fill-opacity:0.19;"/>
            <path d="M27.442,33.443C27.057,34.077 26.673,34.711 26.288,35.344C26.673,34.711 27.057,34.077 27.442,33.443Z" style="fill:white;fill-opacity:0.17;"/>
        </g>
    </g>
</svg>
