<?xml version="1.0" encoding="UTF-8" standalone="no"?>
<!DOCTYPE svg PUBLIC "-//W3C//DTD SVG 1.1//EN" "http://www.w3.org/Graphics/SVG/1.1/DTD/svg11.dtd">
<svg width="100%" height="100%" viewBox="0 0 436 52" version="1.1" xmlns="http://www.w3.org/2000/svg" xmlns:xlink="http://www.w3.org/1999/xlink" xml:space="preserve" xmlns:serif="http://www.serif.com/" style="fill-rule:evenodd;clip-rule:evenodd;stroke-linejoin:round;stroke-miterlimit:2;">
    <g transform="matrix(1,0,0,1,-32.465746,-74.284186)">
        <g id="logo-porcelanosa.png" transform="matrix(1.190569,0,0,1.190569,29.678984,71.430823)">
            <path d="M308.847,23.495C308.677,28.077 308.828,31.05 304.979,35.843C304.448,36.504 304.835,36.683 304.296,37.319C304.038,37.623 303.796,37.386 303.333,38.335C303.112,38.789 303.015,38.988 298.245,42.076C297.752,42.395 289.762,46.446 284.632,45.042C284.144,44.909 278.822,43.453 278.549,43.314C278.426,43.252 278.481,42.982 278.345,42.952C278.119,42.903 277.893,43.193 277.671,43.124C277.57,43.093 277.661,43.011 276.588,42.361C275.564,41.741 269.984,38.731 266.94,31.312C265.401,27.56 264.932,20.105 266.719,16.599C267.238,15.581 267.133,15.577 267.668,14.57C267.748,14.419 268.054,14.457 268.097,14.292C268.148,14.091 267.815,13.899 267.889,13.706C267.959,13.523 268.298,13.605 268.418,13.451C269.108,12.565 268.891,12.453 269.602,11.582C270.691,10.247 277.462,1.355 290.473,2.712C290.76,2.742 290.744,2.768 295.518,4.441C295.819,4.547 296.163,4.535 296.442,4.688C296.574,4.76 296.527,5.042 296.673,5.075C296.891,5.124 297.103,4.814 297.315,4.885C297.416,4.919 297.316,5.001 298.389,5.67C302.011,7.928 302.541,9.098 303.388,9.609C303.877,9.905 304.673,10.385 307.277,15.61C308.531,18.126 308.81,22.853 308.847,23.495ZM295.471,39.465C288.921,44.013 282.752,41.488 281.727,41.069C280.828,40.701 281.081,40.346 280.206,39.979C279.804,39.81 279.7,40.019 279.413,39.609C278.79,38.719 271.014,34.314 272.527,20.503C272.672,19.18 273.186,12.851 280.254,8.07C284.758,5.023 291.308,4.478 296.837,10.17C303.983,17.527 304.81,30.982 295.471,39.465Z" style="fill:white;fill-opacity:0.97;"/>
            <path d="M30.185,31.618C28.93,28.419 28.818,28.461 28.705,27.47C28.497,25.641 28.583,23.106 28.714,22.495C31.008,11.802 34.122,9.873 35.517,8.521C36.508,7.561 39.2,5.78 39.532,5.56C39.913,5.308 39.912,5.351 42.436,4.335C42.764,4.203 44.842,3.367 46.591,2.824C48.627,2.191 54.87,2.979 56.488,3.546C56.892,3.687 60.201,4.846 61.412,5.632C67.016,9.268 66.679,10.033 67.754,11.293C73.17,17.638 72.035,24.489 71.665,26.544C70.209,34.627 67.254,36.86 66.654,37.622C66.478,37.845 65.036,39.675 64.313,40.292C63.678,40.835 63.486,40.43 62.812,40.957C60.769,42.554 60.701,42.41 60.525,42.548C60.368,42.672 60.501,43.045 60.312,43.11C60.084,43.188 59.874,42.809 59.637,42.852C59.485,42.88 59.571,43.195 59.436,43.27C59.155,43.426 58.8,43.38 58.496,43.485C57.947,43.674 53.528,45.2 51.488,45.371C46.21,45.812 37.967,41.363 37.71,41.17C37.544,41.044 37.587,40.735 37.414,40.62C36.978,40.33 36.392,40.315 35.965,40.011C35.765,39.869 35.808,39.527 35.634,39.354C35.457,39.177 35.147,39.186 34.965,39.015C34.422,38.505 34.728,38.323 34.205,37.787C30.832,34.329 31.267,34.022 30.185,31.618ZM65.123,28.402C64.289,31.178 64.319,31.169 64.222,31.4C64.164,31.537 63.906,31.497 63.838,31.63C63.398,32.487 63.812,32.589 63.358,33.432C62.712,34.632 59.847,38.906 57.383,40.286C56.272,40.908 56.345,40.98 56.241,41.01C56.056,41.063 55.866,40.795 55.683,40.856C55.207,41.016 55.256,42.284 49.511,42.221C45.368,42.176 35.286,37.787 35.409,23.499C35.479,15.314 38.462,13.578 40.435,10.441C41.804,8.265 52.54,0.778 61.353,11.612C62.186,12.637 62.455,13.324 62.519,13.489C62.934,14.55 63.237,14.365 63.555,15.476C64.514,18.83 66.212,20.581 65.123,28.402Z" style="fill:white;fill-opacity:0.97;"/>
            <path d="M74.304,43.509C75.161,36.659 74.276,3.28 74.626,2.699C74.729,2.53 86.475,2.566 87.403,2.848C92.999,4.546 93.916,5.262 94.39,5.632C94.522,5.735 95.914,6.821 96.003,6.953C98.098,10.074 98.804,16.624 97.167,19.296C95.498,22.017 92.975,23.302 92.527,23.53C90.905,24.355 92.556,26.174 92.707,26.341C97.081,31.16 99.879,38.154 102.577,41.437C102.724,41.616 102.903,41.422 104.678,43.43C105.883,44.791 104.746,45.465 103.492,45.461C99.548,45.445 98.822,45.464 97.271,43.712C94.457,40.529 94.083,38.634 93.315,37.61C93.2,37.457 92.892,37.489 92.826,37.31C92.761,37.135 93.064,36.958 93.007,36.78C92.977,36.688 92.298,35.753 92.234,35.665C92.117,35.504 91.843,35.505 91.736,35.338C91.579,35.095 91.67,34.732 91.488,34.507C91.355,34.342 91.013,34.466 90.889,34.294C90.35,33.547 90.886,33.383 90.389,32.559C87.965,28.542 85.763,25.543 81.506,26.509C80.413,26.757 80.377,27.229 80.705,40.493C80.721,41.153 80.681,41.825 80.822,42.47C80.905,42.847 81.268,43.121 81.364,43.495C81.781,45.111 81.141,45.08 79.478,45.336C78.476,45.157 77.474,44.978 76.473,44.799C75.935,44.712 75.956,44.815 75.401,44.726C74.041,44.506 74.423,43.64 74.304,43.509ZM89.492,8.51C96.407,14.754 90.83,22.351 83.462,23.146C80.562,23.458 80.669,22.394 80.616,19.498C80.381,6.736 80.99,6.651 81.465,6.451C84,5.383 88.476,7.802 89.492,8.51Z" style="fill:white;fill-opacity:0.97;"/>
            <path d="M3.526,45.384C3.333,45.238 2.182,45.607 2.408,43.502C2.772,40.114 2.729,40.115 2.729,12.5C2.729,4.172 2.105,4.12 2.439,3.48C2.568,3.232 2.995,3.33 3.211,3.153C3.377,3.017 3.315,2.638 3.524,2.591C3.766,2.536 11.781,2.577 12.499,2.581C19.659,2.618 22.749,5.028 22.754,5.029C22.938,5.083 23.126,4.782 23.303,4.857C23.485,4.933 23.433,5.253 23.586,5.378C23.793,5.548 24.124,5.515 24.323,5.692C24.506,5.855 24.497,6.164 24.667,6.339C24.833,6.51 25.155,6.492 25.29,6.688C25.604,7.146 25.665,7.742 25.955,8.216C26.054,8.379 26.32,8.381 26.424,8.541C26.983,9.402 27.672,12.114 27.753,12.432C28.649,15.955 25.753,22.876 24.553,23.551C23.655,24.057 22.424,25.713 20.423,26.289C13.628,28.242 8.776,24.882 8.679,28.515C8.391,39.225 9.113,42.348 9.383,43.519C9.974,46.078 8.009,45.339 7.492,45.361C6.925,45.198 7.053,44.767 5.497,44.787C4.028,44.806 4.175,45.187 3.526,45.384ZM8.757,14.5C8.754,12.147 8.386,7.537 9.586,6.614C11.201,5.373 14.214,5.996 14.61,6.078C19.46,7.082 20.246,9.67 20.728,10.337C22.454,12.729 22.75,13.146 21.856,16.594C21.05,19.703 21.279,19.921 18.822,21.949C16.937,23.504 16.832,23.849 11.492,23.6C7.88,23.431 8.733,21.177 8.757,14.5Z" style="fill:white;fill-opacity:0.95;"/>
            <path d="M236.314,2.848C236.724,3.823 236.744,3.792 237.465,4.525C239.054,6.466 238.826,6.589 240.459,8.533C245.505,14.54 245.108,14.812 250.312,20.664C250.724,21.263 251.136,21.863 251.548,22.462C251.842,22.804 254.405,25.778 255.127,26.823C256.432,28.715 258.247,32.574 259.479,31.48C259.481,31.478 259.354,6.223 259.281,5.518C259.121,3.983 258.762,3.744 258.718,3.507C258.54,2.542 259.221,2.576 262.493,2.532C262.741,2.838 262.442,2.923 262.707,3.249C262.948,3.546 263.137,3.234 263.325,3.557C263.481,3.824 263.268,4.213 263.424,4.481C262.977,6.352 262.931,6.336 262.942,6.502C263.368,13.024 262.963,12.994 262.856,19.501C262.827,21.262 262.583,36.087 262.925,41.518C262.941,41.764 263.239,46.501 260.528,43.469C259.233,42.021 259.084,42.181 258.987,42.043C258.129,40.823 258.371,40.71 257.468,39.523C255.495,36.93 255.161,37.267 254.995,37.041C254.113,35.834 254.327,35.739 253.436,34.545C251.922,32.517 249.754,29.948 249.424,29.557C246.488,26.078 246.218,26.357 245.99,26.036C245.131,24.831 245.39,24.712 244.479,23.515C242.491,20.907 242.156,21.265 241.991,21.038C241.118,19.836 241.359,19.717 240.458,18.531C238.467,15.91 238.158,16.266 237.992,16.04C237.686,15.624 237.614,15.069 237.326,14.64C236.921,14.035 236.785,14.163 236.486,13.511C236.414,13.355 235.699,11.8 235.362,11.676C235.103,11.58 234.84,11.896 234.564,11.897C234.311,11.899 234.033,11.528 233.834,11.685C233.605,11.866 233.726,12.263 233.729,12.555C233.836,25.048 233.876,24.996 233.835,37.501C233.815,43.868 234.406,43.859 234.242,44.386C234.177,44.595 233.8,44.509 233.648,44.666C233.497,44.824 233.581,45.161 233.392,45.269C233.367,45.283 232.086,45.357 231.518,45.34C230.764,45.317 230.815,45.218 230.39,44.616C230.323,44.519 229.752,44.41 229.845,43.529C230.164,40.505 230.194,40.532 230.196,37.5C230.211,7.521 230.311,7.485 229.929,6.349C229.541,5.198 229.102,5.327 228.995,5.139C228.913,4.996 229.127,4.792 229.048,4.646C229.006,4.567 228.377,4.421 228.434,3.487C228.547,1.64 233.946,3.075 236.314,2.848Z" style="fill:white;fill-opacity:0.97;"/>
            <path d="M196.396,43.474C196.058,44.062 195.72,44.65 195.383,45.238C194.891,45.276 195.043,44.832 194.547,44.87C193.941,44.918 194.115,45.242 193.514,45.384C193.21,45.455 192.883,45.261 192.58,45.333C190.907,43.021 192.83,42.136 193.266,41.373C195.161,38.057 194.466,37.754 198.079,30.301C198.185,30.081 200.338,24.343 202.561,19.535C203.231,18.086 203.031,18.04 203.667,16.551C203.724,16.417 203.997,16.451 204.032,16.309C204.083,16.1 203.812,15.887 203.88,15.683C203.935,15.517 204.246,15.567 204.33,15.414C205.41,13.453 205.153,13.374 206.128,11.335C207.859,7.711 208.51,5.163 208.652,4.606C208.691,4.456 209.075,2.95 210.372,3.729C210.748,3.955 210.651,4.038 211.91,7.332C212.77,9.581 212.944,9.499 213.002,9.7C213.452,11.236 220.871,29.774 221.233,30.613C222.054,32.514 222.109,32.472 222.171,32.64C222.494,33.519 222.587,34.471 222.895,35.356C223.627,37.462 223.944,37.299 224.626,39.452C225.51,42.242 226.513,42.825 226.57,43.487C226.672,44.682 225.668,44.669 225.626,44.713C225.454,44.898 225.713,45.336 225.492,45.46C225.2,45.623 224.786,45.184 224.494,45.348C223.946,45.185 224.075,44.754 222.5,44.756C220.976,44.758 221.101,45.155 220.521,45.321C220.251,45.176 219.873,45.422 219.604,45.277C219.413,45.174 219.489,44.839 219.337,44.684C219.181,44.526 218.795,44.608 218.736,44.394C218.663,44.128 219.003,43.899 219.046,43.627C219.234,42.456 217.921,38.702 216.704,36.407C215.954,34.994 216.162,32.689 213.491,32.601C202.31,32.234 201.994,32.474 201.211,33.068C201.077,33.17 200.146,33.876 199.786,34.622C199.522,35.172 199.477,35.809 199.226,36.365C199.11,36.622 197.056,39.997 196.396,43.474ZM211.264,22.595C213.432,27.978 213.538,28.003 213.364,28.47C213.293,28.66 213.001,28.661 212.851,28.797C211.668,29.871 211.455,29.299 206.502,29.31C205.835,29.312 202.786,29.715 202.663,28.464C202.639,28.221 202.549,27.316 203.713,25.599C203.807,25.461 204.088,25.491 204.137,25.331C204.201,25.125 203.938,24.909 203.99,24.7C204.016,24.598 204.24,24.724 204.628,23.556C204.764,23.149 204.933,23.224 206.726,18.614C207.324,17.076 206.862,16.286 208.522,16.422C209.695,16.517 209.697,18.995 209.82,19.357C209.911,19.626 209.933,19.585 211.264,22.595Z" style="fill:white;fill-opacity:0.97;"/>
            <path d="M338.317,43.465C338.008,44.071 337.699,44.676 337.39,45.282C334.47,45.448 332.441,46.196 333.616,43.527C334.349,41.862 334.771,42.099 337.181,36.374C338.164,34.04 338.506,32.846 338.597,32.531C339.13,30.67 340.013,29.887 340.426,28.469C340.514,28.166 340.516,27.832 340.663,27.553C340.731,27.424 341.002,27.462 341.032,27.319C341.08,27.092 340.79,26.868 340.853,26.645C340.899,26.486 341.219,26.562 341.291,26.414C341.557,25.862 341.562,25.211 341.815,24.654C341.884,24.502 342.153,24.515 342.223,24.364C343.09,22.503 342.805,22.419 343.654,20.555C343.718,20.416 343.992,20.437 344.029,20.289C344.079,20.081 343.801,19.868 343.872,19.666C343.93,19.502 344.239,19.565 344.333,19.419C344.874,18.576 344.346,18.374 346.081,15.301C346.543,14.483 346.201,14.381 346.671,13.558C346.743,13.431 347.012,13.468 347.041,13.326C347.089,13.095 346.802,12.869 346.862,12.642C346.903,12.488 347.217,12.562 347.284,12.417C347.569,11.797 347.441,11.748 350.512,4.512C351.133,3.049 352.715,3.454 353.211,5.649C353.346,6.249 353.388,6.884 353.643,7.444C353.715,7.602 354.078,7.48 354.122,7.648C354.186,7.892 353.842,8.119 353.885,8.368C353.902,8.469 354.171,8.303 354.479,9.506C354.605,9.996 354.649,9.938 356.716,15.414C356.967,16.08 356.977,16.04 358.204,18.613C359.288,20.887 358.794,21.047 359.849,23.362C362.26,28.654 361.914,29.006 365.205,36.628C366.208,38.952 365.866,39.05 366.846,41.363C367.38,42.624 369.377,43.324 367.677,44.714C367.189,45.112 367.128,44.8 366.618,44.881C364.544,44.738 364.57,44.768 362.469,44.763C362.191,44.564 361.737,44.776 361.459,44.576C361.398,44.533 361.67,44.428 361.045,43.742C360.824,43.499 360.714,43.759 360.479,43.501C360.427,41.511 360.651,41.497 360.186,40.62C359.881,40.046 359.783,40.139 359.595,39.469C358.858,36.846 358.339,37.068 357.56,34.478C356.839,32.081 355.381,32.61 345.5,32.601C342.427,32.599 342.251,32.9 340.928,35.694C338.595,40.62 338.381,42.813 338.317,43.465ZM346.668,22.585C346.843,22.138 346.838,22.173 346.999,21.741C347.052,21.599 347.241,21.545 347.312,21.411C347.508,21.043 348.878,16.619 349.491,16.482C350.801,16.192 350.509,16.864 350.981,18.084C351.116,18.431 352.317,21.533 352.712,22.405C353.382,23.883 353.228,23.889 353.779,25.387C353.802,25.451 355.404,27.285 354.843,28.663C354.561,29.356 354.366,29.563 345.518,29.376C342.92,29.321 344.765,27.636 346.668,22.585Z" style="fill:white;fill-opacity:0.97;"/>
            <path d="M106.965,24.468C107.915,30.242 108.595,32.709 111.141,35.81C112.628,37.622 112.9,38.073 113.561,38.421C115.357,39.366 116.747,41.236 122.452,41.893C125.636,42.26 130.986,39.595 132.356,38.33C132.53,38.169 132.521,37.866 132.695,37.705C132.88,37.533 133.203,37.561 133.38,37.381C133.559,37.201 133.535,36.882 133.7,36.69C133.853,36.512 134.163,36.51 134.296,36.317C134.93,35.394 134.71,35.299 135.424,34.415C138.843,30.182 137.243,40.371 137.228,40.397C137.135,40.562 136.856,40.529 136.73,40.671C136.562,40.859 136.572,41.175 136.384,41.345C136.176,41.533 135.833,41.51 135.612,41.684C135.463,41.8 135.498,42.091 135.329,42.174C134.779,42.439 134.117,42.404 133.568,42.671C133.416,42.744 133.52,43.088 133.357,43.131C133.114,43.195 132.883,42.874 132.636,42.917C132.535,42.934 132.673,43.196 131.494,43.478C126.509,44.672 126.557,44.79 121.448,44.922C118.922,44.987 116.131,43.792 115.472,43.598C114.868,43.42 114.22,43.393 113.636,43.159C113.491,43.101 113.529,42.83 113.39,42.762C112.847,42.494 112.204,42.467 111.667,42.189C111.57,42.139 111.598,42.123 110.561,41.391C108.515,39.947 108.408,40.14 106.558,38.438C97.548,30.149 99.795,17.798 103.616,12.589C103.713,12.456 103.784,12.544 105.051,11.109C105.606,10.481 105.241,10.299 105.805,9.743C106.448,9.11 109.023,7.412 109.311,7.222C109.404,7.161 109.363,7.17 110.451,6.419C110.603,6.314 110.629,6.063 110.797,5.986C110.932,5.924 111.1,6.119 111.236,6.06C111.672,5.872 112.331,5.405 112.421,5.341C112.566,5.239 112.508,4.928 112.677,4.875C112.892,4.807 113.109,5.105 113.328,5.056C113.472,5.023 113.422,4.736 113.558,4.677C122.275,0.9 131.346,3.606 133.444,4.7C133.572,4.767 133.514,5.051 133.656,5.081C133.884,5.128 134.101,4.818 134.324,4.883C134.426,4.913 134.34,4.996 135.411,5.638C137.342,6.797 137.438,7.286 137.646,12.523C137.791,16.195 135.267,13.634 134.972,13.098C133.74,10.863 134.134,10.595 132.131,8.952C131.018,8.04 128.647,7.018 128.329,6.881C119.838,3.221 111.205,9.869 109.489,14.494C109.096,15.553 108.787,15.389 108.53,16.511C108.388,17.133 108.374,17.786 108.165,18.388C108.121,18.517 107.854,18.461 107.81,18.589C107.616,19.165 107.023,23.997 106.965,24.468Z" style="fill:white;fill-opacity:0.97;"/>
            <path d="M151.567,45.187C151.323,45.166 150.537,44.683 144.5,44.749C144.121,44.753 140.065,44.798 139.785,44.312C139.295,43.457 140.666,43.537 140.714,40.505C140.759,37.709 141.244,7.459 140.371,5.545C140.081,4.91 137.944,2.527 141.507,2.591C160.588,2.931 162.227,1.355 162.615,4.486C163.097,8.366 160.833,7.352 160.583,7.24C158.881,6.477 158.898,6.42 158.51,6.402C147.156,5.88 146.906,6.635 146.749,7.567C146.616,8.35 146.66,8.337 146.691,17.498C146.703,21.264 149.166,20.413 153.499,20.382C157.165,20.355 158.656,18.478 158.966,21.443C159.428,25.85 156.088,23.753 154.489,23.729C149.071,23.647 146.698,23.001 146.632,26.503C146.382,39.65 146.192,41.41 149.488,41.599C158.353,42.106 159.852,41.243 160.627,40.798C161.459,40.318 161.542,40.565 162.38,40.081C163.695,39.322 164.449,38.996 164.448,40.515C164.448,41.499 163.796,43.938 162.363,45.169C162.059,45.142 161.838,44.806 161.534,44.779C157.697,44.441 153.208,44.818 152.487,44.878C152.165,44.905 151.889,45.16 151.567,45.187Z" style="fill:white;fill-opacity:0.95;"/>
            <path d="M315.519,4.529C316.357,3.93 321.077,0.553 328.373,3.761C328.533,3.831 329.428,4.224 330.321,4.765C331.405,5.421 331.889,9.277 331.686,10.588C331.523,11.635 330.055,12.361 328.676,9.36C327.857,7.577 325.935,7.114 325.752,7.009C319.843,3.64 314.31,8.894 315.997,14.301C317.131,17.937 326.861,22.397 327.37,22.734C330.538,24.833 330.777,24.525 332.455,26.532C337.202,32.212 332.259,44.932 324.493,45.413C317.325,45.856 316.033,45.163 315.39,44.818C314.913,44.563 310.308,43.758 310.21,39.502C310.079,33.826 310.404,33.242 311.527,33.4C312.481,33.533 312.148,33.927 312.809,36.299C313.062,37.209 315.272,40.197 317.584,41.343C323.881,44.464 327.987,39.232 328.401,37.468C329.723,31.836 325.965,29.947 325.586,29.392C325.318,28.999 325.23,29.205 324.8,29.015C324.631,28.941 324.605,28.688 324.452,28.585C323.255,27.786 322.302,27.552 319.333,25.806C316.148,23.932 315.971,24.321 315.717,24.127C315.549,24 315.643,23.66 315.465,23.548C315.45,23.539 314.236,23.574 313.689,22.31C313.257,21.313 312.96,21.586 312.729,21.299C312.216,20.664 311.515,18.759 311.431,18.529C308.91,11.677 311.906,8.739 313.464,6.473C314.46,5.457 315.349,4.678 315.519,4.529Z" style="fill:white;fill-opacity:0.97;"/>
            <path d="M173.283,6.483C173.146,7.091 172.84,7.002 172.828,8.502C172.621,33.16 172.815,37.822 172.92,40.369C174.24,41.003 173.983,41.593 175.489,41.621C186.433,41.823 186.375,41.105 187.567,40.677C191.172,39.382 189.254,44.004 189.204,44.242C188.926,44.558 188.648,44.873 188.37,45.189C187.397,44.982 187.465,44.77 186.504,44.791C173.913,45.061 169.677,44.62 168.449,44.812C168.142,44.859 167.923,45.181 167.616,45.228C167.437,45.064 167.091,45.201 166.911,45.036C166.329,44.502 167.201,41.715 167.244,41.444C167.428,40.295 167.338,6.319 167.258,5.518C167.111,4.062 166.724,3.69 166.692,3.508C166.449,2.132 167.432,2.891 172.499,2.511C175.747,2.267 173.993,4.022 173.723,4.545C173.723,4.545 173.319,6.328 173.283,6.483Z" style="fill:white;fill-opacity:0.98;"/>
            <path d="M173.283,6.483C173.183,36.872 173.557,36.902 172.92,40.369C172.815,37.822 172.621,33.16 172.828,8.502C172.84,7.002 173.146,7.091 173.283,6.483Z" style="fill:white;fill-opacity:0.35;"/>
            <path d="M167.616,45.228C167.923,45.181 168.142,44.859 168.449,44.812C169.677,44.62 173.913,45.061 186.504,44.791C187.465,44.77 187.397,44.982 188.37,45.189C183.457,45.432 169.276,45.25 167.616,45.228Z" style="fill:white;fill-opacity:0.34;"/>
            <path d="M151.567,45.187C151.889,45.16 152.165,44.905 152.487,44.878C153.208,44.818 157.697,44.441 161.534,44.779C161.838,44.806 162.059,45.142 162.363,45.169C157.78,45.445 152.43,45.223 151.567,45.187Z" style="fill:white;fill-opacity:0.34;"/>
            <path d="M360.479,43.501C360.714,43.759 360.824,43.499 361.045,43.742C361.67,44.428 361.398,44.533 361.459,44.576C361.737,44.776 362.191,44.564 362.469,44.763L361.514,45.426C361.203,45.373 360.879,45.442 360.568,45.39C359.313,45.179 360.084,44.671 360.479,43.501Z" style="fill:white;fill-opacity:0.36;"/>
            <path d="M362.469,44.763C364.57,44.768 364.544,44.738 366.618,44.881C365.052,45.081 365.111,45.242 363.5,45.279C363.5,45.279 361.673,45.414 361.514,45.426L362.469,44.763Z" style="fill:white;fill-opacity:0.31;"/>
            <path d="M74.304,43.509C74.423,43.64 74.041,44.506 75.401,44.726C75.956,44.815 75.935,44.712 76.473,44.799L75.519,45.391C75.393,45.37 73.953,45.127 73.953,45.127C73.878,45.018 73.978,45.01 74.304,43.509Z" style="fill:white;fill-opacity:0.35;"/>
            <path d="M220.521,45.321C221.101,45.155 220.976,44.758 222.5,44.756C224.075,44.754 223.946,45.185 224.494,45.348C222.483,45.276 222.534,45.297 220.521,45.321Z" style="fill:white;fill-opacity:0.28;"/>
            <path d="M76.473,44.799C77.474,44.978 78.476,45.157 79.478,45.336C77.477,45.321 77.515,45.282 75.519,45.391L76.473,44.799Z" style="fill:white;fill-opacity:0.29;"/>
            <path d="M3.526,45.384C4.175,45.187 4.028,44.806 5.497,44.787C7.053,44.767 6.925,45.198 7.492,45.361C5.481,45.284 5.531,45.322 3.526,45.384Z" style="fill:white;fill-opacity:0.29;"/>
            <path d="M262.493,2.532C263.966,2.809 264.011,2.721 264.08,2.831C264.08,2.831 263.477,4.349 263.424,4.481C263.268,4.213 263.481,3.824 263.325,3.557C263.137,3.234 262.948,3.546 262.707,3.249C262.442,2.923 262.741,2.838 262.493,2.532Z" style="fill:white;fill-opacity:0.36;"/>
            <path d="M315.519,4.529C315.349,4.678 314.46,5.457 313.464,6.473C314.03,4.89 314.188,4.938 315.519,4.529Z" style="fill:white;fill-opacity:0.4;"/>
            <path d="M338.317,43.465C338.249,43.954 338.334,43.919 338.27,44.381C338.115,45.49 337.532,45.136 337.39,45.282C337.699,44.676 338.008,44.071 338.317,43.465Z" style="fill:white;fill-opacity:0.34;"/>
            <path d="M236.314,2.848C236.49,3.024 236.874,2.791 237.05,2.967C237.141,3.058 237.08,3.081 237.465,4.525C236.744,3.792 236.724,3.823 236.314,2.848Z" style="fill:white;fill-opacity:0.32;"/>
            <path d="M196.396,43.474C196.099,44.934 196.168,44.96 196.076,45.05C195.797,45.32 195.665,44.964 195.383,45.238C195.72,44.65 196.058,44.062 196.396,43.474Z" style="fill:white;fill-opacity:0.46;"/>
            <path d="M250.312,20.664C250.724,21.263 251.136,21.863 251.548,22.462C251.136,21.863 250.724,21.263 250.312,20.664Z" style="fill:white;fill-opacity:0.35;"/>
        </g>
    </g>
</svg>
